<svg xmlns="http://www.w3.org/2000/svg" width="1024" height="1024">
  <defs>
    <style type="text/css"><![CDATA[
      * { fill: #ffffff !important; stroke: #ffffff !important; }
    ]]></style>
  </defs>
<path d="m489.623 85.596 3.418-.038 3.678.008 3.788-.015q3.964-.011 7.928.003c3.383.011 6.765-.009 10.148-.038 3.233-.023 6.465-.016 9.698-.012l3.678-.034 3.418.028h3.005c3.364.645 4.502 1.86 6.618 4.502a86 86 0 0 1 2.953 7.309l.793 2.167a1089 1089 0 0 1 2.504 6.961q.865 2.385 1.733 4.77 1.299 3.561 2.588 7.125c2.636 7.28 5.405 14.508 8.244 21.713C566 145.678 566 145.678 566 149c12.49 1.58 12.49 1.58 25 3v2l3.914.34c5.002.555 9.65 1.784 14.461 3.222q2.355.695 4.71 1.38l2.065.615c2.02.56 2.02.56 4.85.443v2l11 1v2c3.166 1.038 3.166 1.038 7 1 2.725-1.584 4.763-3.739 6.937-6q1.86-1.83 3.72-3.656l1.769-1.778a103 103 0 0 1 5.511-5.066l1.797-1.555L661 146q2.829-2.432 5.653-4.87 1.987-1.715 3.982-3.425A181 181 0 0 0 681 128c5.14-4.07 5.14-4.07 8.257-3.818 3.443 1.027 6.487 2.583 9.634 4.283l1.994 1.058c2.125 1.131 4.245 2.272 6.365 3.414l4.358 2.333C738.94 149.94 738.94 149.94 743 154c.344 9.47-2.016 19.45-3.474 28.799q-.597 3.845-1.178 7.693c-1.472 9.585-3.17 19.054-5.348 28.508l1.867.905c13.927 7.152 25.7 21.57 36.695 32.532l1.476 1.468q2.111 2.105 4.216 4.216l2.479 2.482c2.24 2.368 4.27 4.824 6.267 7.397 4.231-.792 8.384-1.84 12.547-2.926l4.504-1.166 6.988-1.816A2581 2581 0 0 1 826 258l2.33-.596a920 920 0 0 1 6.81-1.697l2.04-.523c4.773-1.153 8.95-1.602 13.82-1.184 1.74 1.376 1.74 1.376 2.809 3.355l1.299 2.286 1.33 2.546 3.05 5.45 1.667 3.044c2.051 3.69 4.177 7.33 6.325 10.964l3.491 5.902q2.778 4.705 5.537 9.422l1.895 3.232c3.597 6.304 3.597 6.304 3.597 9.572-1.39 4.486-3.959 7.338-7 10.852q-1.794 2.136-3.582 4.277l-1.776 2.113c-2.957 3.574-5.687 7.305-8.447 11.032a735 735 0 0 1-7.508 9.89l-2.425 3.153C849 354 849 354 846.52 356.316c-1.752 2.457-1.752 2.457-1.247 4.605.789 2.422 1.73 4.735 2.727 7.079a769 769 0 0 1 1.98 5.258l1.078 2.85c4.65 12.422 8.238 24.918 11.378 37.785l.935 3.814.81 3.39c.95 3.682.95 3.682 2.819 6.903 1.995.364 3.996.693 6 1q2.745.781 5.455 1.674l3.153 1.031 3.353 1.111 3.472 1.14q5.472 1.798 10.942 3.606l7.434 2.444q9.098 2.99 18.191 5.994c1.263 5.773 2.253 11.311 2.414 17.238.04 1.306.078 2.611.118 3.956l.093 4.118.106 4.263q.102 4.235.186 8.468c.074 3.527.175 7.052.282 10.578q.06 2.814.113 5.629l.09 2.556c.056 5.615.056 5.615-2.027 8.248-2.796 2.291-5.468 3.534-8.8 4.934l-1.88.8c-1.999.85-4.003 1.688-6.008 2.524q-4.095 1.737-8.187 3.481l-2.007.851a337 337 0 0 0-14.306 6.481c-4.985 2.375-9.895 4.297-15.187 5.875l-.078 1.965c-.95 16.425-3.646 32.965-8.259 48.758C859.42 594.24 859.42 594.24 859 602c1.579 2.643 2.774 4.258 4.875 6.375q1.538 1.677 3.074 3.355l1.564 1.662c2.168 2.344 4.169 4.812 6.174 7.295l2.165 2.665L879 626l2.336 2.836 2.226 2.726 2.004 2.442C887 636 887 636 887 638h2c1.762 2.012 1.762 2.012 3.687 4.687l1.95 2.637c1.667 3.273 1.32 4.206.363 7.676a97 97 0 0 1-2.371 5.219l-1.477 3.045-1.59 3.236-3.277 6.738-1.667 3.42c-1.52 3.14-3.015 6.29-4.497 9.447l-1.344 2.86q-1.244 2.652-2.478 5.308a186 186 0 0 1-2.276 4.666c-.914 1.842-1.712 3.74-2.492 5.643-3.016 2.882-3.813 2.826-7.87 2.918-2.566-.12-5.103-.286-7.661-.5l-2.467-.19c-6.706-.527-13.4-1.161-20.096-1.81q-4.515-.43-9.03-.856-2.79-.264-5.579-.534l-2.541-.243-2.223-.215c-2.017-.149-4.042-.152-6.064-.152-1.76 2.133-1.76 2.133-3.25 4.937-2.878 4.803-6.003 8.8-9.797 12.899-1.864 2.066-3.536 4.188-5.203 6.414-3.617 4.753-7.655 9.072-11.751 13.41-2.828 2.929-2.828 2.929-4.999 6.34h-2l-.75 1.75c-1.25 2.25-1.25 2.25-3.5 3.875-1.995 2.16-1.995 2.16-1.575 4.421l.553 2.44c.3 1.343.3 1.343.604 2.714L767 763l.613 2.59a867 867 0 0 0 1.989 8.02l1.484 5.972q1.157 4.645 2.324 9.289 1.135 4.524 2.254 9.05l.71 2.795c1.105 4.488 2.085 8.625 1.626 13.284-1.59 1.914-1.59 1.914-3.938 3.625l-2.761 2.047Q769.65 820.839 768 822q-1.98 1.413-3.957 2.828a1161 1161 0 0 1-8.719 6.14 693 693 0 0 0-9.999 7.133c-4.56 3.297-9.15 6.547-13.888 9.586l-2.253 1.45c-2.863 1.131-4.281.825-7.184-.137-2.184-1.277-2.184-1.277-4.438-2.938l-2.613-1.894L712 842q-3.557-2.57-7.125-5.125l-1.826-1.313c-3.101-2.218-6.22-4.346-9.487-6.312-2.614-1.578-4.887-3.302-7.187-5.313-4.4-3.866-4.4-3.866-9.375-6.937-3.981 1.053-7.62 2.672-11.332 4.434C634.818 835.788 602.653 845.723 569 851l-.78 2.443c-1.446 4.216-3.078 8.336-4.74 12.471l-1.031 2.579-2.161 5.39a7513 7513 0 0 0-3.259 8.137C546.38 908.62 546.38 908.62 545 910c-1.997.136-4 .202-6.001.24l-3.894.078c-5.892.09-11.784.15-17.677.197q-4.668.04-9.335.143c-3.755.082-7.51.125-11.266.14q-2.145.018-4.291.078c-11.183.299-11.183.299-14.49-2.572-1.331-2.076-2.218-3.986-3.046-6.304a908 908 0 0 0-1.8-3.992 330 330 0 0 1-1.513-3.883l-.798-2.008C469 887.29 469 887.29 469 885l-4-1 .616-1.6c.796-4.977-1.809-9.886-3.526-14.5a119 119 0 0 1-1.355-3.93c-1.428-4.39-2.979-8.25-5.735-11.97-4.23-2.128-8.328-2.532-13-3a217 217 0 0 1-6.043-1.324l-3.021-.665c-27.985-6.258-56.338-14.69-81.334-29.062-2.558-1.233-2.558-1.233-5.012-.186-2.462 1.176-4.464 2.432-6.637 4.073l-2.286 1.71-2.417 1.829a3807 3807 0 0 1-5.094 3.8l-2.597 1.937c-5.826 4.3-11.757 8.461-17.717 12.572a75 75 0 0 0-3.668 2.8c-2.708 2.154-4.566 3.476-8.065 3.707-4.486-1.719-8.034-4.383-11.859-7.254q-2.269-1.68-4.547-3.347l-2.01-1.504c-1.638-1.266-1.638-1.266-3.693-1.086a345 345 0 0 1-3.399-3.476c-3.217-3.062-6.923-5.522-10.539-8.087l-2.38-1.708-2.334-1.67-2.25-1.614c-1.828-1.26-3.682-2.363-5.602-3.472C247 815 247 815 246.213 812.458c-.282-4.57.71-8.369 1.877-12.767l.677-2.681c.712-2.819 1.44-5.633 2.17-8.448q1.09-4.215 2.16-8.436.664-2.621 1.353-5.236c1.213-4.778 1.785-8.96 1.55-13.89l2-1c1.369-3.135 1.369-3.135 1-7-2.301-3.056-5.168-5.445-8-8a173 173 0 0 1-4-4.375l-1.75-1.96C244 737 244 737 244 735h-2a98 98 0 0 1-4-4.938c-2.543-3.574-2.543-3.574-6-6.062a309 309 0 0 1-3-5c-1.763-2.557-3.599-5.06-5.438-7.563l-1.447-1.998c-2.5-3.412-5.002-6.547-8.115-9.439l-1 2c-1.281-.03-2.563-.062-3.883-.094-8.821 0-17.604 1.01-26.38 1.812a739 739 0 0 1-13.7 1.124c-1.891.147-3.78.338-5.667.533l-3.19.219-2.704.24c-4.18-1.408-5.502-5.078-7.476-8.834l-1.144-2.14a352 352 0 0 1-3.395-6.708l-1.235-2.471q-1.281-2.566-2.556-5.135-1.942-3.91-3.897-7.814l-2.5-5.017-1.165-2.333C127.084 651.21 127.084 651.21 128 647c1.7-2.706 3.73-5.081 5.812-7.5.589-.703 1.177-1.405 1.782-2.13A916 916 0 0 1 141 631q1.517-1.792 3.031-3.586 2.066-2.446 4.14-4.885a373 373 0 0 0 10.099-12.396C160 608 160 608 161.637 606.367c2.063-2.069 3.307-3.673 3.547-6.625-.33-4.655-.33-4.655-2.747-8.512L161 590l2-1-.459-1.848q-1.027-4.168-2.041-8.34l-.723-2.908-.683-2.822-.635-2.587c-.47-2.554-.54-4.903-.459-7.495l-2-1c-.379-2.871-.379-2.871-.563-6.438-.097-4.44-.097-4.44-1.437-8.562-.07-1.874-.084-3.75-.063-5.625l.028-3.04L154 536l-3.629-1.113c-6.639-2.216-12.949-5.172-19.309-8.075a7639 7639 0 0 0-7.734-3.519l-1.912-.87a290 290 0 0 0-11.244-4.81l-2.532-1.04a166 166 0 0 0-4.536-1.773c-1.99-.823-1.99-.823-5.104-2.8-1.868-4.947-2.267-9.537-2.148-14.766l.025-2.215c.03-2.34.076-4.68.123-7.019l.07-4.67c.061-3.907.148-7.813.247-11.719q.06-2.393.105-4.787c.045-2.353.103-4.706.164-7.058l.035-2.147c.118-3.937.536-7.11 2.379-10.619 2.023-1.293 2.023-1.293 4.375-2.188l2.336-.917L108 443c.673-.347 1.346-.694 2.04-1.05 1.996-.968 3.81-1.423 5.96-1.95q2.045-.636 4.078-1.307l2.397-.788 2.56-.846 5.389-1.768q4.24-1.393 8.48-2.792 4.095-1.35 8.194-2.69l2.566-.853 2.387-.779 2.097-.69C156 427 156 427 159 427l.29-2.095c1.29-8.537 3.45-16.699 5.897-24.968l.599-2.046c2.895-9.89 6.074-19.63 9.804-29.239A182 182 0 0 0 179 359l-3-1a246 246 0 0 1-2-5 140 140 0 0 0-4.5-6l-2.727-3.48-1.403-1.78c-3.369-4.28-6.676-8.608-9.986-12.933q-1.485-1.938-2.975-3.871a1678 1678 0 0 1-4.972-6.499l-1.59-2.057-1.476-1.946-1.315-1.717c-1.233-2.004-1.83-3.364-2.056-5.717.934-2.26.934-2.26 2.437-4.762l1.692-2.856 1.871-3.07 1.9-3.177a1788 1788 0 0 1 4.021-6.682 782 782 0 0 0 5.16-8.689c1.655-2.82 3.319-5.636 4.981-8.452.619-1.055 1.237-2.111 1.874-3.2 6.29-10.558 6.29-10.558 10.064-13.112 2.876.133 4.862.425 7.562 1.187C186.47 255.17 189.926 256 194 256v2l3.52.25c7.215.802 14.173 2.874 21.167 4.75q3.133.835 6.268 1.66 2.831.751 5.661 1.508c3.12.767 6.209 1.352 9.384 1.832l.684-1.645c1.718-3.075 3.98-5.494 6.378-8.043l1.573-1.682C259.192 245.417 269.854 234.495 282 225q2.04-1.77 4.062-3.563C289 219 289 219 291 219l-.487-2.433c-2.85-14.299-5.64-28.596-7.888-43.005l-.507-3.185A276 276 0 0 1 281 162l-.38-2.282c-.222-2.066-.222-2.066.38-5.718 5.466-6.719 15.9-10.406 23.5-14.375l4.11-2.172c9.394-4.956 18.872-9.737 28.39-14.453l1.982 1.812c4.325 3.945 8.698 7.778 13.268 11.438 5.754 4.652 11.119 9.668 16.512 14.727A301 301 0 0 0 380 161l2.477 2.902c1.529 1.396 1.529 1.396 3.523 2.098 4.189-.464 7.949-1.955 11.875-3.438q3.36-1.174 6.727-2.34l3.305-1.167c4.07-1.388 8.167-2.533 12.343-3.555 1.201-.3 2.403-.598 3.64-.906 2.803-.535 5.269-.722 8.11-.594l1-2c1.978-.502 1.978-.502 4.55-.852l2.807-.39 2.955-.383 2.92-.406c3.982-.541 7.74-.969 11.768-.969l.302-1.956c.932-4.066 2.389-7.859 3.866-11.755l.961-2.561q1.01-2.686 2.026-5.371 1.521-4.03 3.034-8.064 2.427-6.45 4.893-12.884a904 904 0 0 0 2.604-6.937l1.552-4.074 1.334-3.549c2.576-5.139 5.45-6.223 11.051-6.253M383 224l-2.552 1.124C356.133 235.884 333.933 250.446 314 268l-2.156 1.855C300.229 279.875 288.884 290.246 279 302l-1.347 1.576c-24.016 28.197-43.54 61.717-54.881 97.028a526 526 0 0 1-2.354 7.091C210.804 436.541 206.595 466.653 206 497l-.121 3.355c-.347 15.459 1.5 31.167 3.621 46.457l.359 2.64.67 4.563c.524 2.208 1.387 3.998 2.471 5.985l3-2c25.88-16.062 56.05-25.523 86-30l2.253-.339c8.814-1.288 17.625-1.985 26.517-2.415 3.243-.115 3.243-.115 6.23-1.246 2.595-.097 5.156-.14 7.75-.125l2.094-.012c4.482.009 8.713.491 13.156 1.137q2.78.216 5.562.395c12.13.782 23.957 1.917 35.875 4.372 5.563 1.098 9.972 1.256 15.563.233l1 3c1.886.91 1.886.91 4.25 1.473l2.743.77 3.007.82c18.896 5.484 36.637 13.114 54.272 21.776C500.346 566.714 518.82 574.819 538 581l2.267.744C584.613 596.182 634.744 601.814 681 594l1-1a108 108 0 0 1 4.902-.434C724.79 589.398 787.326 569.674 815 542c2.615-10.529 3-22.183 3-33l.016-2.199q.029-4.37.046-8.739l.026-3.076.01-2.95.016-2.708c-.017-2.486-.017-2.486-1.114-5.328-.031-1.957-.013-3.915.035-5.871.047-6.85-.604-13.421-1.598-20.192l-.53-3.635c-3.23-20.895-7.824-44.261-17.423-63.31-1.21-2.438-2.05-4.616-2.863-7.191-7.17-22.214-20.565-43.304-34.621-61.801l-1.307-1.724A516 516 0 0 0 749 308l-1.349-1.67c-12.03-14.782-25.55-28.684-40.651-40.33q-2.942-2.431-5.875-4.875c-3.249-2.706-6.472-5-10.125-7.125l-1-1c-9.343-7.434-19.604-13.195-30-19l-2.133-1.208C622.53 212.856 583.085 201.873 543 197l-2.546-.317C486.524 190.852 432.166 201.968 383 224M229 609c.66 4.273 2.115 7.855 3.871 11.797l.856 1.922q.893 1.998 1.793 3.993a987 987 0 0 1 2.732 6.136q.87 1.944 1.744 3.886l1.6 3.57c1.123 2.8 1.123 2.8 3.404 3.696 2.843-1.266 5.6-2.598 8.375-4 22.013-10.71 46.2-17.787 70.625-20l3.383-.332c33.431-2.856 67.243 1.265 98.617 13.332l2.05.785c13.117 5.113 25.777 11.313 38.491 17.336 7.767 3.678 15.538 7.335 23.396 10.816l2.128.944c2.624 1.152 5.214 2.212 7.935 3.119q2.335.902 4.664 1.82c19.52 7.59 39.157 13.236 59.648 17.555l3.593.76c6.59 1.335 13.042 2.242 19.756 2.64C590 689 590 689 592 690l1-1v1c13.091 1.822 25.984 2.314 39.194 2.26 3.17-.01 6.34 0 9.51.013 12.839.009 25.574-.417 38.296-2.273l1-1 3.32.066c5.653.062 11.027-1.037 16.555-2.129l3.443-.676a389 389 0 0 0 33.405-8.294 435 435 0 0 1 6.703-1.918c14.664-3.587 14.664-3.587 25.885-12.864 1.407-2.543 2.567-5.141 3.667-7.83 1.632-3.76 3.639-7.31 5.59-10.91 7.57-13.837 7.57-13.837 13.432-28.445l-1-2-2.184 1.18C753.036 634.343 713.022 643.9 672 648l-3.006.315c-8.554.817-17.097.886-25.682.872l-2.33-.002c-21.118-.056-41.623-2.035-62.438-5.508l-3.935-.654-3.5-.596c-3.025-.49-3.025-.49-5.767-.409-2.468-.019-4.123-.47-6.424-1.33a116 116 0 0 0-10.43-3.126c-29.224-7.356-56.42-18.699-83.664-31.449C390.042 571.193 301.8 563.322 229 609m45 77c4.741 11.045 16.28 20.482 24.562 28.812l2.611 2.639c5.97 5.942 12.252 11.293 18.827 16.549l5.48 4.574C374.146 778.34 442.13 802.24 505 802l3-1 1 1c2.31.1 4.625.13 6.937.125l3.84.008c3.115.092 3.115.092 5.223-1.133 2.292.034 4.584.104 6.875.187 53.163.758 112.216-22.573 154.39-53.93a123 123 0 0 1 5.204-3.538L694 742v-1c-10.335.551-10.335.551-20.64 1.49-12.616 1.39-25.092 1.822-37.78 1.77-3.144-.01-6.286 0-9.43.013-10.604.007-21.042-.322-31.58-1.574-3.603-.428-7.063-.733-10.693-.636-4.027-.065-7.051-.862-10.877-2.063q-3.726-.75-7.469-1.41-2.186-.397-4.37-.796l-2.301-.42c-39.38-7.274-77.852-19.964-113.548-38.194-5.355-2.727-10.77-5.329-16.187-7.93l-2.882-1.394A239 239 0 0 0 408 682l-2.115-.808c-17.733-6.607-36-9.74-54.885-10.192l-3.574-.156c-24.92-.658-50.662 5.164-73.426 15.156m193 196 1 2Z" fill="#ffffff"/><path d="m288 330 1 2 1.875-.5c3.624-.58 7.062-.528 10.723-.437 2.39.079 2.39.079 4.398-.875L308 330c3.7 3.246 6.035 6.44 8.242 10.813l1.768 3.464 1.865 3.723q.986 1.941 1.976 3.881 2.055 4.035 4.1 8.077a2570 2570 0 0 0 9.736 18.98l.939 1.818a1088 1088 0 0 0 14.52 27.195c2.74 4.963 5.354 9.96 7.854 15.049h2q.04-3.937.063-7.875l.025-2.262c.119-4.061.119-4.061-1.088-7.863q-.063-3 0-6-.002-2.23-.035-4.46c-.01-.963-.018-1.924-.027-2.915l-.036-2.898c.088-2.434.483-4.392 1.098-6.727-.4-2.098-.4-2.098-1-4v-2l-.125-3.375c.115-3.33.372-4.886 2.125-7.625h-2l.563-1.937L361 361l-1-1a200 200 0 0 1-.25-9.062l-.062-2.53c-.037-5.798.496-10.274 3.312-15.408 5.387-2.656 10.963-2.137 16.813-1.75l2.6.121c6.326.368 6.326.368 8.587 2.629.273 2.421.273 2.421.305 5.529l.052 3.56.025 3.926.05 4.12c.045 3.735.076 7.47.104 11.206q.029 3.5.062 6.998.115 12.203.2 24.407c.053 7.588.129 15.175.215 22.763q.108 9.765.176 19.531c.027 3.89.06 7.78.11 11.67q.067 5.49.084 10.978c.01 1.984.042 3.968.073 5.952v3.577l.026 3.11c-.612 3.394-1.805 4.567-4.482 6.673-2.474.546-2.474.546-5.203.61l-2.969.097-3.078.043-3.125.09q-3.812.105-7.625.16v1c-6.293.363-6.293.363-9.312-1.187-2.001-2.15-2.622-4.082-3.688-6.813a242 242 0 0 0-2.617-5.184l-1.571-3.026-1.687-3.228-1.751-3.36a1327 1327 0 0 0-13.041-24.267 879 879 0 0 1-11.213-21.124l-1.16-2.233-1.005-1.956c-.972-1.806-.972-1.806-2.955-3.622a71 71 0 0 1-1.945-3.695l-1.075-2.168-1.105-2.262-1.129-2.285Q309.37 390.797 308 388h-1l.02 3.238q.091 15.098.135 30.194c.016 5.174.037 10.349.071 15.523.033 4.993.05 9.985.059 14.978q.008 2.858.032 5.717c.022 2.667.025 5.334.024 8.001l.032 2.394c-.018 3.25-.161 5.568-1.737 8.447-2.345 2.162-3.959 1.98-7.109 1.934l-3.224-.026-3.365-.087-3.377-.03c-8.224-.114-8.224-.114-10.561-1.283-.29-2.025-.573-4.052-.754-6.09-.15-1.993-.15-1.993-1.246-3.91l1-2c.151-1.52.249-3.045.316-4.57l.127-2.715.12-2.84.13-2.863q.16-3.506.307-7.012l-2-1 .5-3.062c.47-3.707.572-7.207.5-10.938 0-2.597.016-5.192.035-7.79q.015-2.917.027-5.835l.026-2.91c.018-5.244-.179-10.317-.92-15.512-.262-3.047.342-5.95.832-8.953l-1-2 1-3a75 75 0 0 0 .066-4.576l-.03-2.802-.044-3.02-.05-6.329a2163 2163 0 0 0-.113-9.98c-.043-3.21-.066-6.42-.087-9.629l-.056-3.009c-.033-8.784-.033-8.784 3.314-12.655 2.8-.67 5.088-.239 8 0zm73 28 1 2Zm-55 26 1 2Zm55 6 1 2Zm-1 35 2 3v-3zm328-95h3v2h2v-2l2.371.254 3.067.308 3.058.317L704 331l1-1c3.906-.26 6.73-.255 10 2 3.198 3.516 4.465 7.666 5.934 12.094l.829 2.442a2060 2060 0 0 1 2.674 7.964l1.89 5.592A6241 6241 0 0 1 732 377l1.602 4.78q4.045 12.075 8.053 24.16c2.927 8.817 5.867 17.63 8.805 26.442l2.645 7.934.842 2.523q.819 2.46 1.634 4.919a764 764 0 0 0 4.201 12.343l.862 2.49q.81 2.34 1.648 4.67c2.142 6.224 2.142 6.224.708 9.739-3.366 1.122-6.09 1.208-9.637 1.316l-3.935.127-4.115.12-4.15.13q-5.082.16-10.163.307l-.703-2.43q-1.296-4.473-2.605-8.94a2140 2140 0 0 1-1.672-5.769l-1.075-3.662-.984-3.38c-.88-2.975-.88-2.975-2.961-5.819l-1-2-46-1-2 9a183 183 0 0 1-1.473 5.184l-.787 2.619-.803 2.635-.814 2.716c-1.986 6.571-1.986 6.571-3.123 8.846-2.955.985-5.093 1.18-8.184 1.281l-3.06.114-3.193.105q-3.124.103-6.247.219l-2.798.092c-2.295.172-4.313.551-6.518 1.189v-3h-2c.557-6.166 1.985-11.496 4.063-17.312a952 952 0 0 0 1.66-4.739l.742-2.083c.673-2.023.673-2.023.535-4.866h2l.695-3.637c1.32-5.922 3.39-11.537 5.47-17.228 1.25-3.43 2.481-6.866 3.71-10.303l.781-2.185c2.601-7.311 5.05-14.67 7.482-22.04 4.266-12.924 8.595-25.826 13.062-38.682q.857-2.471 1.704-4.946 1.18-3.433 2.381-6.858c.23-.68.462-1.359.7-2.059 2.128-6.007 2.128-6.007 5.015-8.062 2.688-.187 2.688-.187 5 0zm6 1 4 1Zm4 37a8388 8388 0 0 0-5.981 19.006q-1.015 3.235-2.038 6.466-1.466 4.645-2.918 9.294l-.928 2.92-.85 2.729-.754 2.396c-.688 2.461-.688 2.461-.531 6.189h29c-1.471-6.81-1.471-6.81-3.254-13.492l-.65-2.195-.659-2.188c-.22-.745-.442-1.49-.67-2.258-.883-2.97-1.787-5.927-2.767-8.867l-.648-2.375-.727-2.625c-.235-.866-.47-1.733-.71-2.625-.96-2.491-2.022-3.563-3.915-5.375a70 70 0 0 1 1-4zm2 7 1 2Zm-278-45h2v2l1.738-.219c7.285-.796 14.481-.851 21.798-.744l2.401.026 2.153.035c2.134-.024 2.134-.024 4.91-1.098v2l1.836-.254c6.234-.758 11.95-.605 18.164.254v-2l2.57.496c3.495.513 6.776.603 10.305.567l3.492-.028L496 331v-1h5v2l2 1c1.746 9.226 1.56 18.04-1 27h-55c-.924 13.731-.924 13.731 1 27l3.991.06c4.882.076 9.762.165 14.643.257q3.17.058 6.34.105c3.037.045 6.072.103 9.108.164l2.87.035 2.668.06 2.349.04C492 388 492 388 495 390c.372 2.383.372 2.383.363 5.34l-.002 3.22-.048 3.377.01 3.366c-.056 8.297-.056 8.297-2.323 11.697-1.987.36-1.987.36-4.45.34h-2.79l-3.018-.047-3.085-.013c-3.261-.017-6.521-.054-9.782-.092q-3.31-.024-6.621-.042c-5.418-.03-10.836-.089-16.254-.146v31l11.637-.105q5.58-.035 11.16-.06 3.878-.022 7.755-.061c3.715-.037 7.431-.054 11.147-.067 1.156-.015 2.311-.03 3.501-.047h3.275l2.874-.02c3.194.434 5.078 1.441 7.651 3.36.6 2.496.6 2.496.559 5.438l-.022 3.21-.1 3.352-.017 3.352c-.125 8.205-.125 8.205-2.42 11.648-2.841.286-5.463.378-8.305.34l-2.602.002c-2.846-.002-5.692-.026-8.538-.049q-2.955-.009-5.91-.013a3728 3728 0 0 1-15.576-.074c-5.295-.03-10.59-.044-15.885-.06Q431.59 478.096 416 478c-1.077-7-1.148-13.872-1.145-20.946l-.01-3.88q-.014-5.238-.012-10.475-.001-3.276-.006-6.551-.013-11.437-.012-22.873-.001-10.65-.026-21.299-.019-9.159-.018-18.319.002-5.463-.013-10.927a2599 2599 0 0 1 0-12.172c-.007-1.204-.012-2.408-.018-3.648l.013-3.351-.002-2.905c.274-2.923.908-5.045 2.249-7.654 2.625-1.312 2.625-1.312 5-2zm127 2c3.55 4.668 4.773 10.348 6.371 15.895l.966 3.285c1.04 3.542 2.07 7.087 3.1 10.632q1.074 3.663 2.15 7.325 2.17 7.394 4.336 14.789a4417 4417 0 0 0 8.126 27.343q1.119 3.728 2.232 7.455l1.364 4.546.594 1.99c1.489 4.947 3.107 9.846 4.761 14.74l.646-2.159a12544 12544 0 0 1 17.542-58.154q1.846-6.06 3.68-12.12 1.819-6.007 3.65-12.009.685-2.252 1.366-4.506.943-3.121 1.899-6.238l1.082-3.56C614 338 615.39 335.041 617 332c9.791-.754 19.21-1.226 29 0 1.298 3.627.686 5.837-.5 9.447l-1.078 3.335-1.207 3.624-1.874 5.755q-1.002 3.064-2.013 6.125a3356 3356 0 0 0-4.163 12.71q-2.09 6.416-4.188 12.828a3856 3856 0 0 0-10.753 33.376q-1.264 3.98-2.532 7.96a2415 2415 0 0 0-7.665 24.504l-1.398 4.544q-1.274 4.149-2.524 8.307l-1.117 3.641-.952 3.15c-1.8 4.677-1.8 4.677-4.036 6.694a44.4 44.4 0 0 1-7.59.531l-2.245.012q-2.349.004-4.698-.022c-2.393-.02-4.783 0-7.176.026q-2.285-.004-4.568-.016l-2.163.025c-3.3-.062-5.23-.315-7.924-2.283-1.72-2.389-2.643-4.375-3.53-7.175l-.948-2.92-.97-3.115-2.086-6.473-1.054-3.313c-1.62-5.065-3.302-10.108-4.986-15.152l-.891-2.699-.823-2.48-.719-2.172c-.613-1.845-.613-1.845-1.629-3.774l-.742-3.633c-1.72-7.967-4.533-15.663-7.095-23.39q-1.028-3.108-2.046-6.22l-1.23-3.714C534 387 534 387 534 384l-2-1c-.6-2.083-1.1-4.195-1.562-6.312-2.17-9.52-5.324-18.71-8.528-27.926-3.62-10.791-3.62-10.791-1.91-16.762 24.185-1.73 24.185-1.73 29 0" fill="#ffffff"/><path d="M362 334h1v97l-2-1 1-5h-2l1-2c.098-2.678.139-5.323.125-8l.012-2.234c.077-4.013.077-4.013-1.137-7.766q-.063-3 0-6-.002-2.23-.035-4.46c-.01-.963-.018-1.924-.027-2.915l-.036-2.898c.088-2.434.483-4.392 1.098-6.727-.4-2.098-.4-2.098-1-4v-2l-.125-3.375c.115-3.33.372-4.886 2.125-7.625h-2l.563-1.937L361 361l-1-1c-.252-3.033-.185-6.082-.187-9.125l-.038-2.555c-.012-5.171.546-9.424 2.225-14.32m-1 24 1 2Zm0 32 1 2Z" fill="#ffffff"/><path d="m731 475 2 1c2.03.154 4.066.25 6.102.316l3.671.127 3.852.12 3.875.13q4.75.16 9.5.307v1l-29 1z" fill="#ffffff"/><path d="M676 447h18v1h-18z" fill="#ffffff"/><path d="M464 479h15v1h-15z" fill="#ffffff"/><path d="M696 447h10v1h-10z" fill="#ffffff"/><path d="M480 479h8v1h-8z" fill="#ffffff"/><path d="M192 703h7v1h-7z" fill="#ffffff"/><path d="m151 425 5 1-4 2z" fill="#ffffff"/><path d="M640 479h6v1h-6z" fill="#ffffff"/><path d="M584 479h6v1h-6z" fill="#ffffff"/><path d="M432 479h6v1h-6z" fill="#ffffff"/><path d="M368 479h6v1h-6z" fill="#ffffff"/><path d="M481 911h5v1h-5z" fill="#ffffff"/><path d="M825 703h5v1h-5z" fill="#ffffff"/><path d="M718 680h5v1h-5z" fill="#ffffff"/><path d="m364 616 2 2-4-1z" fill="#ffffff"/><path d="m740 576 3 1-4 1z" fill="#ffffff"/><path d="m152 538 2 4h-2z" fill="#ffffff"/><path d="M489 479h5v1h-5z" fill="#ffffff"/><path d="m817 702 4 1Z" fill="#ffffff"/><path d="m502 664 3 1h-3z" fill="#ffffff"/><path d="m244 640 2 2-2 1z" fill="#ffffff"/><path d="m648 479 4 1Z" fill="#ffffff"/><path d="m329 429 2 3h-2z" fill="#ffffff"/><path d="m360 418 1 4Z" fill="#ffffff"/><path d="m360 409 1 4Z" fill="#ffffff"/><path d="m538 402 1 3-2-1z" fill="#ffffff"/><path d="m641 330 4 1Z" fill="#ffffff"/><path d="m365 330 4 1Z" fill="#ffffff"/><path d="m294 330 4 1Z" fill="#ffffff"/><path d="M632 222h2v2h-2z" fill="#ffffff"/><path d="m715 845 2 2h-2z" fill="#ffffff"/><path d="m511 800 3 1Z" fill="#ffffff"/><path d="m680 747 2 2h-2z" fill="#ffffff"/><path d="m684 743 2 1-2 1z" fill="#ffffff"/><path d="m531 733 2 2h-2z" fill="#ffffff"/><path d="m622 690 3 1Z" fill="#ffffff"/><path d="M144 689h2l-1 2z" fill="#ffffff"/><path d="m136 673 2 1-2 1z" fill="#ffffff"/><path d="m765 664 2 1-2 1z" fill="#ffffff"/><path d="m576 645 2 2h-2z" fill="#ffffff"/><path d="m498 623 3 1Z" fill="#ffffff"/><path d="m416 589 3 1Z" fill="#ffffff"/><path d="m712 585 3 1Z" fill="#ffffff"/><path d="m555 584 3 1Z" fill="#ffffff"/><path d="m756 568 2 1-2 1z" fill="#ffffff"/><path d="m250 538 2 1-2 1z" fill="#ffffff"/><path d="m142 532 2 2h-2z" fill="#ffffff"/><path d="m745 479 3 1Z" fill="#ffffff"/><path d="m428 479 3 1Z" fill="#ffffff"/><path d="m288 479 3 1Z" fill="#ffffff"/><path d="m708 447 3 1Z" fill="#ffffff"/><path d="m169 348 2 2h-2z" fill="#ffffff"/><path d="m486 330 3 1Z" fill="#ffffff"/><path d="m462 330 3 1Z" fill="#ffffff"/><path d="m373 330 3 1Z" fill="#ffffff"/><path d="m301 330 3 1Z" fill="#ffffff"/><path d="m730 290 2 1-2 1z" fill="#ffffff"/><path d="m788 266 3 1Z" fill="#ffffff"/><path d="m579 205 2 2h-2z" fill="#ffffff"/><path d="m475 199 3 1Z" fill="#ffffff"/><path d="m428 152 3 1Z" fill="#ffffff"/><path d="m448 851 2 1Z" fill="#ffffff"/><path d="m307 846 2 1Z" fill="#ffffff"/><path d="m376 831 2 1Z" fill="#ffffff"/><path d="m520 800 2 1Z" fill="#ffffff"/><path d="m515 800 2 1Z" fill="#ffffff"/><path d="m459 795 2 1Z" fill="#ffffff"/><path d="m609 784 2 1Z" fill="#ffffff"/><path d="m576 742 2 1Z" fill="#ffffff"/><path d="m211 702 2 1Z" fill="#ffffff"/><path d="m440 699 2 1Z" fill="#ffffff"/><path d="m601 689 2 1Z" fill="#ffffff"/><path d="m672 688 2 1Z" fill="#ffffff"/><path d="m381 676 2 1Z" fill="#ffffff"/><path d="m529 674 2 1Z" fill="#ffffff"/><path d="m761 667 2 1Z" fill="#ffffff"/><path d="m768 659 2 1Z" fill="#ffffff"/><path d="m632 651 2 1Z" fill="#ffffff"/><path d="m700 646 2 1Z" fill="#ffffff"/><path d="m259 634 2 1Z" fill="#ffffff"/><path d="m264 632 2 1Z" fill="#ffffff"/><path d="m410 625 2 1Z" fill="#ffffff"/><path d="m281 624 2 1Z" fill="#ffffff"/><path d="m342 616 2 1Z" fill="#ffffff"/><path d="m336 616 2 1Z" fill="#ffffff"/><path d="m600 592 2 1Z" fill="#ffffff"/><path d="m410 587 2 1Z" fill="#ffffff"/><path d="m717 584 2 1Z" fill="#ffffff"/><path d="m538 579 2 1Z" fill="#ffffff"/><path d="m757 570 2 1Z" fill="#ffffff"/><path d="m237 544 2 1Z" fill="#ffffff"/><path d="m256 536 2 1Z" fill="#ffffff"/><path d="m138 531 2 1Z" fill="#ffffff"/><path d="m410 529 2 1Z" fill="#ffffff"/><path d="m407 528 2 1Z" fill="#ffffff"/><path d="m288 528 2 1Z" fill="#ffffff"/><path d="m738 479 2 1Z" fill="#ffffff"/><path d="m576 479 2 1Z" fill="#ffffff"/><path d="m460 479 2 1Z" fill="#ffffff"/><path d="m447 479 2 1Zm-3 0 2 1Z" fill="#ffffff"/><path d="m440 479 2 1Z" fill="#ffffff"/><path d="m424 479 2 1Z" fill="#ffffff"/><path d="m418 479 2 1Z" fill="#ffffff"/><path d="m300 479 2 1Z" fill="#ffffff"/><path d="m292 479 2 1Z" fill="#ffffff"/><path d="m762 478 2 1Z" fill="#ffffff"/><path d="m564 478 2 1Z" fill="#ffffff"/><path d="m560 476 2 1Z" fill="#ffffff"/><path d="m716 447 2 1Z" fill="#ffffff"/><path d="m713 447 2 1Z" fill="#ffffff"/><path d="m917 442 2 1Z" fill="#ffffff"/><path d="m136 432 2 1Z" fill="#ffffff"/><path d="m152 424 2 1Z" fill="#ffffff"/><path d="m324 422 2 1Z" fill="#ffffff"/><path d="m648 419 2 1Z" fill="#ffffff"/><path d="m470 386 2 1Z" fill="#ffffff"/><path d="m763 330 2 1Z" fill="#ffffff"/><path d="m702 330 2 1Z" fill="#ffffff"/><path d="m630 330 2 1Z" fill="#ffffff"/><path d="m622 330 2 1Z" fill="#ffffff"/><path d="m534 330 2 1Z" fill="#ffffff"/><path d="m438 330 2 1Z" fill="#ffffff"/><path d="m748 310 2 1Z" fill="#ffffff"/><path d="m276 307 2 1Z" fill="#ffffff"/><path d="m195 256 2 1Z" fill="#ffffff"/><path d="m674 246 2 1Z" fill="#ffffff"/><path d="m660 238 2 1Z" fill="#ffffff"/><path d="m641 227 2 1Z" fill="#ffffff"/><path d="m626 222 2 1Z" fill="#ffffff"/><path d="m608 213 2 1Z" fill="#ffffff"/><path d="m605 212 2 1Z" fill="#ffffff"/><path d="m602 211 2 1Z" fill="#ffffff"/><path d="m584 206 2 1Z" fill="#ffffff"/><path d="m452 203 2 1Z" fill="#ffffff"/><path d="m546 199 2 1Z" fill="#ffffff"/><path d="m539 198 2 1Z" fill="#ffffff"/><path d="m535 198 2 1Z" fill="#ffffff"/><path d="m483 198 2 1Z" fill="#ffffff"/><path d="m497 197 2 1Z" fill="#ffffff"/><path d="m418 154 2 1Z" fill="#ffffff"/><path d="m419 152 2 1Z" fill="#ffffff"/><path d="m658 146 2 1Z" fill="#ffffff"/></svg>